name rise35.5848peak51.9257fall54.8793.mot
datacolumns 19
datarows 29
range 7.94163100000000 7.98831500000000
endheader
time	ground_force1_vx	ground_force1_vy	ground_force1_vz	ground_force1_px	ground_force1_py	ground_force1_pz	ground_force2_vx	ground_force2_vy	ground_force2_vz	ground_force2_px	ground_force2_py	ground_force2_pz	ground_torque1_x	ground_torque1_y	ground_torque1_z	ground_torque2_x	ground_torque2_y	ground_torque2_z	
7.94163100000000	-42.36222400000000	813.63559899999996	52.37029700000000	0.08164100000000	0.00000000000000	0.11332200000000	-2.53554400000000	6.78994800000000	1.27991100000000	0.00000000000000	0.00000000000000	0.00000000000000	0.00000000000000	17.53760000000000	0.00000000000000	0.00000000000000	0.28220700000000	0.00000000000000	
7.94331900000000	-43.13778300000000	812.76225999999997	52.32525500000000	0.08067400000000	0.00000000000000	0.11324400000000	-3.68654900000000	10.67347300000000	1.94371000000000	0.00000000000000	0.00000000000000	0.00000000000000	0.00000000000000	17.54842100000000	0.00000000000000	0.00000000000000	0.44082000000000	0.00000000000000	
7.94496800000000	-43.93482900000000	811.77466700000002	52.26365600000000	0.07970300000000	0.00000000000000	0.11316300000000	-4.95646100000000	15.17267300000000	2.69712200000000	0.00000000000000	0.00000000000000	0.00000000000000	0.00000000000000	17.56209100000000	0.00000000000000	0.00000000000000	0.62357900000000	0.00000000000000	
7.94663500000000	-44.75328200000000	810.67092900000000	52.18492700000000	0.07872800000000	0.00000000000000	0.11308100000000	-6.30667400000000	20.21374200000000	3.52307300000000	0.00000000000000	0.00000000000000	0.00000000000000	0.00000000000000	17.57865600000000	0.00000000000000	0.00000000000000	0.82708600000000	0.00000000000000	
7.94829900000000	-45.59297900000000	809.44917799999996	52.08853000000000	0.07774900000000	0.00000000000000	0.11299800000000	-7.69228900000000	25.69893600000000	4.40043900000000	0.31505600000000	0.00000000000000	-0.06058100000000	0.00000000000000	17.59815200000000	0.00000000000000	0.00000000000000	1.96729400000000	0.00000000000000	
7.94996200000000	-46.45367600000000	808.10756000000003	51.97395400000000	0.07676700000000	0.00000000000000	0.11291200000000	-9.06540900000000	31.51472100000000	5.30563100000000	0.31704400000000	0.00000000000000	-0.06094200000000	0.00000000000000	17.62060300000000	0.00000000000000	0.00000000000000	2.40762500000000	0.00000000000000	
7.95163500000000	-47.33504400000000	806.64423299999999	51.84072400000000	0.07578200000000	0.00000000000000	0.11282500000000	-10.37877500000000	37.54147100000000	6.21443000000000	0.31889100000000	0.00000000000000	-0.06127800000000	0.00000000000000	17.64601900000000	0.00000000000000	0.00000000000000	2.86060100000000	0.00000000000000	
7.95330300000000	-48.23666700000000	805.05736600000000	51.68840300000000	0.07479400000000	0.00000000000000	0.11273500000000	-11.58923400000000	43.66332200000000	7.10381300000000	0.32061900000000	0.00000000000000	-0.06159400000000	0.00000000000000	17.67439800000000	0.00000000000000	0.00000000000000	3.31615000000000	0.00000000000000	
7.95496400000000	-49.15804200000000	803.34513500000003	51.51658600000000	0.07380400000000	0.00000000000000	0.11264400000000	-12.66060100000000	49.77690000000000	7.95351500000000	0.32224500000000	0.00000000000000	-0.06189200000000	0.00000000000000	17.70572200000000	0.00000000000000	0.00000000000000	3.76508300000000	0.00000000000000	
7.95663000000000	-50.09857800000000	801.50571800000000	51.32491300000000	0.07281100000000	0.00000000000000	0.11255000000000	-13.56562800000000	55.79798500000000	8.74719700000000	0.32378200000000	0.00000000000000	-0.06217600000000	0.00000000000000	17.73996100000000	0.00000000000000	0.00000000000000	4.19965200000000	0.00000000000000	
7.95829500000000	-51.05759200000000	799.53729899999996	51.11305900000000	0.07181700000000	0.00000000000000	0.11245400000000	-14.28698300000000	61.66565900000000	9.47311800000000	0.32524200000000	0.00000000000000	-0.06244700000000	0.00000000000000	17.77706900000000	0.00000000000000	0.00000000000000	4.61390000000000	0.00000000000000	
7.95996500000000	-52.03431200000000	797.43805899999995	50.88074600000000	0.07082100000000	0.00000000000000	0.11235600000000	-14.81725900000000	67.34389700000000	10.12432600000000	0.32663500000000	0.00000000000000	-0.06270800000000	0.00000000000000	17.81698700000000	0.00000000000000	0.00000000000000	5.00382100000000	0.00000000000000	
7.96163200000000	-53.02787400000000	795.20618000000002	50.62773400000000	0.06982400000000	0.00000000000000	0.11225600000000	-15.15817800000000	72.82085100000000	10.69843000000000	0.32796700000000	0.00000000000000	-0.06296000000000	0.00000000000000	17.85963900000000	0.00000000000000	0.00000000000000	5.36732200000000	0.00000000000000	
7.96330000000000	-54.03732400000000	792.83984499999997	50.35383200000000	0.06882700000000	0.00000000000000	0.11215300000000	-15.31917700000000	78.10626700000000	11.19703100000000	0.32924600000000	0.00000000000000	-0.06320300000000	0.00000000000000	17.90493400000000	0.00000000000000	0.00000000000000	5.70404400000000	0.00000000000000	
7.96496700000000	-55.06161400000000	790.33723199999997	50.05889000000000	0.06782900000000	0.00000000000000	0.11204900000000	-15.31560200000000	83.22756600000000	11.62492100000000	0.33047600000000	0.00000000000000	-0.06344000000000	0.00000000000000	17.95276700000000	0.00000000000000	0.00000000000000	6.01506100000000	0.00000000000000	
7.96663100000000	-56.09960600000000	787.69652199999996	49.74280600000000	0.06683100000000	0.00000000000000	0.11194200000000	-15.16672500000000	88.22515400000000	11.98916500000000	0.33166200000000	0.00000000000000	-0.06367100000000	0.00000000000000	18.00301300000000	0.00000000000000	0.00000000000000	6.30252300000000	0.00000000000000	
7.96830400000000	-57.15007200000000	784.91589299999998	49.40552200000000	0.06583400000000	0.00000000000000	0.11183200000000	-14.89379100000000	93.14748500000000	12.29815300000000	0.33280800000000	0.00000000000000	-0.06389800000000	0.00000000000000	18.05553600000000	0.00000000000000	0.00000000000000	6.56926300000000	0.00000000000000	
7.96996100000000	-58.21169200000000	781.99352599999997	49.04703000000000	0.06483800000000	0.00000000000000	0.11172100000000	-14.51822400000000	98.04630600000000	12.56070000000000	0.33391700000000	0.00000000000000	-0.06412000000000	0.00000000000000	18.11017800000000	0.00000000000000	0.00000000000000	6.81842200000000	0.00000000000000	
7.97163000000000	-59.28305700000000	778.92760699999997	48.66736500000000	0.06384300000000	0.00000000000000	0.11160700000000	-14.06013600000000	102.97245200000000	12.78528300000000	0.33499100000000	0.00000000000000	-0.06433800000000	0.00000000000000	18.16677000000000	0.00000000000000	0.00000000000000	7.05310800000000	0.00000000000000	
7.97331700000000	-60.36267300000000	775.71632599999998	48.26661100000000	0.06284900000000	0.00000000000000	0.11149100000000	-13.53718500000000	107.97241300000000	12.97941400000000	0.33603200000000	0.00000000000000	-0.06455300000000	0.00000000000000	18.22512200000000	0.00000000000000	0.00000000000000	7.27612300000000	0.00000000000000	
7.97496400000000	-61.44895400000000	772.35788200000002	47.84489700000000	0.06185800000000	0.00000000000000	0.11137200000000	-12.96381100000000	113.08580300000000	13.14921100000000	0.33704100000000	0.00000000000000	-0.06476600000000	0.00000000000000	18.28503100000000	0.00000000000000	0.00000000000000	7.48975000000000	0.00000000000000	
7.97662900000000	-62.54023400000000	768.85048900000004	47.40240100000000	0.06086900000000	0.00000000000000	0.11125100000000	-12.35085500000000	118.34377499999999	13.29913700000000	0.33802000000000	0.00000000000000	-0.06497700000000	0.00000000000000	18.34627400000000	0.00000000000000	0.00000000000000	7.69562400000000	0.00000000000000	
7.97829500000000	-63.63476100000000	765.19237599999997	46.93934400000000	0.05988300000000	0.00000000000000	0.11112800000000	-11.70550800000000	123.76832200000000	13.43191400000000	0.33897000000000	0.00000000000000	-0.06518500000000	0.00000000000000	18.40861400000000	0.00000000000000	0.00000000000000	7.89466900000000	0.00000000000000	
7.97996700000000	-64.73070500000000	761.38179500000001	46.45599500000000	0.05890100000000	0.00000000000000	0.11100300000000	-11.03153500000000	129.37235899999999	13.54857800000000	0.33989200000000	0.00000000000000	-0.06539200000000	0.00000000000000	18.47179800000000	0.00000000000000	0.00000000000000	8.08710000000000	0.00000000000000	
7.98163200000000	-65.82615699999999	757.41702399999997	45.95266400000000	0.05792100000000	0.00000000000000	0.11087500000000	-10.32972100000000	135.16043600000000	13.64865600000000	0.34078500000000	0.00000000000000	-0.06559800000000	0.00000000000000	18.53555500000000	0.00000000000000	0.00000000000000	8.27248300000000	0.00000000000000	
7.98331600000000	-66.91913300000000	753.29637500000001	45.42970700000000	0.05694600000000	0.00000000000000	0.11074600000000	-9.59844600000000	141.12991700000001	13.73041100000000	0.34165000000000	0.00000000000000	-0.06580300000000	0.00000000000000	18.59960000000000	0.00000000000000	0.00000000000000	8.44982300000000	0.00000000000000	
7.98496400000000	-68.00757900000001	749.01819999999998	44.88752200000000	0.05597400000000	0.00000000000000	0.11061400000000	-8.83433800000000	147.27244400000001	13.79114800000000	0.34248800000000	0.00000000000000	-0.06600700000000	0.00000000000000	18.66363200000000	0.00000000000000	0.00000000000000	8.61768800000000	0.00000000000000	
7.98663700000000	-69.08937200000000	744.58089800000005	44.32654900000000	0.05500700000000	0.00000000000000	0.11048000000000	-8.03293100000000	153.57552799999999	13.82752700000000	0.34329700000000	0.00000000000000	-0.06621100000000	0.00000000000000	18.72733600000000	0.00000000000000	0.00000000000000	8.77433600000000	0.00000000000000	
7.98831500000000	-70.16232700000000	739.98292200000003	43.74726500000000	0.05404500000000	0.00000000000000	0.11034400000000	-7.18928700000000	160.02412300000000	13.83587100000000	0.34407900000000	0.00000000000000	-0.06641400000000	0.00000000000000	18.79038200000000	0.00000000000000	0.00000000000000	8.91785100000000	0.00000000000000	
